# Blender 4.5.1 LTS
# www.blender.org
mtllib chair.mtl
o Cube
v -0.267136 0.394393 0.300974
v -0.267136 0.457006 0.300974
v -0.267136 0.394393 -0.300974
v -0.267136 0.457006 -0.300974
v 0.267136 0.394393 0.300974
v 0.267136 0.457006 0.300974
v 0.267136 0.394393 -0.300974
v 0.267136 0.457006 -0.300974
v 0.192600 0.394393 -0.300974
v -0.192600 0.394393 -0.300974
v -0.192600 0.457006 -0.300974
v 0.192600 0.457006 -0.300974
v -0.192600 0.394393 0.300974
v 0.192600 0.394393 0.300974
v 0.192600 0.457006 0.300974
v -0.192600 0.457006 0.300974
v -0.267136 0.394393 -0.220412
v -0.267136 0.394393 0.220412
v -0.267136 0.457006 0.220412
v -0.267136 0.457006 -0.220412
v 0.267136 0.394393 0.220412
v 0.267136 0.394393 -0.220412
v 0.267136 0.457006 -0.220412
v 0.267136 0.457006 0.220412
v 0.192600 0.457006 -0.220412
v 0.192600 0.457006 0.220412
v -0.192600 0.457006 -0.220412
v -0.192600 0.457006 0.220412
v -0.192600 0.394393 -0.220412
v -0.192600 0.394393 0.220412
v 0.192600 0.394393 -0.220412
v 0.192600 0.394393 0.220412
v -0.267136 -0.001945 0.220412
v -0.267136 -0.001945 0.300974
v -0.192600 -0.001945 -0.300974
v -0.267136 -0.001945 -0.300974
v 0.267136 -0.001945 -0.220412
v 0.267136 -0.001945 -0.300974
v 0.192600 -0.001945 0.300974
v 0.267136 -0.001945 0.300974
v 0.192600 -0.001945 -0.300974
v -0.192600 -0.001945 0.300974
v -0.192600 -0.001945 0.220412
v 0.192600 -0.001945 0.220412
v -0.267136 -0.001945 -0.220412
v 0.267136 -0.001945 0.220412
v -0.192600 -0.001945 -0.220412
v 0.192600 -0.001945 -0.220412
v -0.267136 1.064228 -0.220412
v -0.267136 1.064228 -0.300974
v 0.192600 1.064228 -0.300974
v 0.267136 1.064228 -0.300974
v -0.192600 1.064228 -0.300974
v 0.267136 1.064228 -0.220412
v 0.192600 1.064228 -0.220412
v -0.192600 1.064228 -0.220412
vn -1.0000 -0.0000 -0.0000
vn -0.0000 -0.0000 -1.0000
vn 1.0000 -0.0000 -0.0000
vn -0.0000 -0.0000 1.0000
vn -0.0000 1.0000 -0.0000
vn -0.0000 -1.0000 -0.0000
vt 0.555910 0.488763
vt 0.555910 0.538451
vt 0.595735 0.538451
vt 0.595735 0.488763
vt 0.573314 0.488763
vt 0.573314 0.538451
vt 0.614827 0.538451
vt 0.614827 0.488763
vt 0.337993 0.488763
vt 0.337993 0.538451
vt 0.298168 0.538451
vt 0.298168 0.488763
vt 0.358773 0.488763
vt 0.358773 0.538451
vt 0.317260 0.538451
vt 0.317260 0.488763
vt 0.337993 0.296176
vt 0.298168 0.296176
vt 0.358773 0.375995
vt 0.317260 0.375995
vt 0.317260 0.336170
vt 0.358773 0.336170
vt 0.614827 0.375995
vt 0.573314 0.375995
vt 0.573314 0.336170
vt 0.614827 0.336170
vt 0.358773 0.633737
vt 0.573314 0.633737
vt 0.573314 0.593911
vt 0.358773 0.593911
vt 0.317260 0.593911
vt 0.358773 0.823228
vt 0.317260 0.823228
vt 0.595735 0.823228
vt 0.555910 0.823228
vt 0.614827 0.593911
vt 0.555910 0.296176
vt 0.595735 0.296176
vt 0.317260 0.633737
vt 0.614827 0.633737
vt 0.317260 0.296176
vt 0.358773 0.296176
vt 0.573314 0.296176
vt 0.614827 0.296176
vt 0.614827 0.823228
vt 0.573314 0.823228
s 0
usemtl Material
f 17/1/1 20/2/1 4/3/1 3/4/1
f 9/5/2 12/6/2 8/7/2 7/8/2
f 21/9/3 24/10/3 6/11/3 5/12/3
f 13/13/4 16/14/4 2/15/4 1/16/4
f 14/12/1 32/9/1 44/17/1 39/18/1
f 28/19/5 19/20/5 2/21/5 16/22/5
f 24/23/5 26/24/5 15/25/5 6/26/5
f 26/24/5 28/19/5 16/22/5 15/25/5
f 1/12/1 18/9/1 33/17/1 34/18/1
f 30/19/6 32/24/6 14/25/6 13/22/6
f 5/8/4 6/7/4 15/6/4 14/5/4
f 14/5/4 15/6/4 16/14/4 13/13/4
f 3/16/2 4/15/2 11/14/2 10/13/2
f 10/13/2 11/14/2 12/6/2 9/5/2
f 10/27/6 9/28/6 31/29/6 29/30/6
f 29/30/6 31/29/6 32/24/6 30/19/6
f 30/9/3 13/12/3 42/18/3 43/17/3
f 17/31/6 29/30/6 30/19/6 18/20/6
f 20/15/4 27/14/4 56/32/4 49/33/4
f 25/29/5 27/30/5 28/19/5 26/24/5
f 23/2/3 8/3/3 52/34/3 54/35/3
f 23/36/5 25/29/5 26/24/5 24/23/5
f 11/14/2 4/15/2 50/33/2 53/32/2
f 27/30/5 20/31/5 19/20/5 28/19/5
f 7/4/3 22/1/3 37/37/3 38/38/3
f 31/29/6 22/36/6 21/23/6 32/24/6
f 7/4/3 8/3/3 23/2/3 22/1/3
f 22/1/3 23/2/3 24/10/3 21/9/3
f 1/12/1 2/11/1 19/10/1 18/9/1
f 18/9/1 19/10/1 20/2/1 17/1/1
f 44/24/6 46/23/6 40/26/6 39/25/6
f 33/20/6 43/19/6 42/22/6 34/21/6
f 36/39/6 35/27/6 47/30/6 45/31/6
f 41/28/6 38/40/6 37/36/6 48/29/6
f 13/13/4 1/16/4 34/41/4 42/42/4
f 29/13/4 17/16/4 45/41/4 47/42/4
f 22/8/4 31/5/4 48/43/4 37/44/4
f 21/9/3 5/12/3 40/18/3 46/17/3
f 18/16/2 30/13/2 43/42/2 33/41/2
f 5/8/4 14/5/4 39/43/4 40/44/4
f 10/4/3 29/1/3 47/37/3 35/38/3
f 32/5/2 21/8/2 46/44/2 44/43/2
f 3/16/2 10/13/2 35/42/2 36/41/2
f 9/5/2 7/8/2 38/44/2 41/43/2
f 31/1/1 9/4/1 41/38/1 48/37/1
f 17/1/1 3/4/1 36/38/1 45/37/1
f 51/28/5 53/27/5 56/30/5 55/29/5
f 52/40/5 51/28/5 55/29/5 54/36/5
f 53/27/5 50/39/5 49/31/5 56/30/5
f 25/6/4 23/7/4 54/45/4 55/46/4
f 27/14/4 25/6/4 55/46/4 56/32/4
f 12/6/2 11/14/2 53/32/2 51/46/2
f 4/3/1 20/2/1 49/35/1 50/34/1
f 8/7/2 12/6/2 51/46/2 52/45/2
